HIERARCHY
ROOT Hips
{
	OFFSET 0.00 0.00 0.00
	CHANNELS 6 Xposition Yposition Zposition Yrotation Xrotation Zrotation
	JOINT Spine
	{
		OFFSET	0.0000	9.2263	1.5771
		CHANNELS 3 Xrotation Yrotation Zrotation
		JOINT Spine1
		{
			OFFSET	0.0000	16.2540	-0.1656
			CHANNELS 3 Xrotation Yrotation Zrotation
			JOINT Spine2
			{
				OFFSET	0.0000	13.6396	-1.2923
				CHANNELS 3 Xrotation Yrotation Zrotation
				JOINT Neck
				{
					OFFSET	0.0000	13.8774	-4.3542
					CHANNELS 3 Xrotation Yrotation Zrotation
					JOINT Neck1
					{
						OFFSET	0.0000	4.3400	0.9269
						CHANNELS 3 Xrotation Yrotation Zrotation
						JOINT Head
						{
							OFFSET	0.0000	4.0266	0.8585
							CHANNELS 3 Xrotation Yrotation Zrotation
							End Site
							{
								OFFSET 0.0000 23.0297 0.1231
							}
						}
					}
				}
				JOINT LeftShoulder
				{
					OFFSET	6.1442	10.1870	-3.7932
					CHANNELS 3 Zrotation Xrotation Yrotation
					JOINT LeftArm
					{
						OFFSET	12.3191	-1.1130	-1.7935
						CHANNELS 3 Zrotation Xrotation Yrotation
						JOINT LeftForeArm
						{
							OFFSET	27.6870	0.0000	0.0000
							CHANNELS 3 Xrotation Zrotation Yrotation
							JOINT LeftHand
							{
								OFFSET	27.8738	0.0000	0.0000
								CHANNELS 3 Zrotation Yrotation Xrotation
								JOINT LeftHandThumb1
								{
									OFFSET	2.3785	-1.0029	2.6209
									CHANNELS 3 Zrotation Xrotation Yrotation
									JOINT LeftHandThumb2
									{
										OFFSET	3.3624	-1.0029	2.8398
										CHANNELS 3 Zrotation Xrotation Yrotation
										JOINT LeftHandThumb3
										{
											OFFSET	4.5018	-1.3445	2.1783
											CHANNELS 3 Zrotation Xrotation Yrotation
											End Site
											{
												OFFSET 2.6000 -1.0000 1.0000
											}
										}
									}
								}
								JOINT LeftHandMiddle1
								{
									OFFSET	10.4639	0.6148	0.4298
									CHANNELS 3 Zrotation Xrotation Yrotation
									JOINT LeftHandMiddle2
									{
										OFFSET	5.7921	0.0000	0.0000
										CHANNELS 3 Zrotation Xrotation Yrotation
										JOINT LeftHandMiddle3
										{
											OFFSET	3.7132	0.0000	0.0000
											CHANNELS 3 Zrotation Xrotation Yrotation
											End Site
											{
												OFFSET 2.3000 0.0000 0.0000
											}
										}
									}
								}
								JOINT LeftHandIndex1
								{
									OFFSET	10.3945	0.6148	2.7055
									CHANNELS 3 Zrotation Xrotation Yrotation
									JOINT LeftHandIndex2
									{
										OFFSET	5.5493	0.0000	0.0000
										CHANNELS 3 Zrotation Xrotation Yrotation
										JOINT LeftHandIndex3
										{
											OFFSET	3.3911	0.0000	0.0000
											CHANNELS 3 Zrotation Xrotation Yrotation
											End Site
											{
												OFFSET 2.5000 0.0000 0.0000
											}
										}
									}
								}
								JOINT LeftHandRing1
								{
									OFFSET	10.3252	0.3211	-1.8755
									CHANNELS 3 Zrotation Xrotation Yrotation
									JOINT LeftHandRing2
									{
										OFFSET	5.4452	0.0000	0.0000
										CHANNELS 3 Zrotation Xrotation Yrotation
										JOINT LeftHandRing3
										{
											OFFSET	3.7132	0.0000	0.0000
											CHANNELS 3 Zrotation Xrotation Yrotation
											End Site
											{
												OFFSET 2.0000 0.0000 0.0000
											}
										}
									}
								}
								JOINT LeftHandPinky1
								{
									OFFSET	10.0130	-0.0783	-3.9671
									CHANNELS 3 Zrotation Xrotation Yrotation
									JOINT LeftHandPinky2
									{
										OFFSET	3.6763	0.0000	0.0000
										CHANNELS 3 Zrotation Xrotation Yrotation
										JOINT LeftHandPinky3
										{
											OFFSET	2.8113	0.0000	0.0000
											CHANNELS 3 Zrotation Xrotation Yrotation
											End Site
											{
												OFFSET 2.9000 0.0000 0.0000
											}
										}
									}
								}
							}
						}
					}
				}
				JOINT RightShoulder
				{
					OFFSET	-6.1402	10.1870	-3.7932
					CHANNELS 3 Zrotation Xrotation Yrotation
					JOINT RightArm
					{
						OFFSET	-12.3231	-1.1130	-1.7935
						CHANNELS 3 Zrotation Xrotation Yrotation
						JOINT RightForeArm
						{
							OFFSET	-27.6870	0.0000	0.0000
							CHANNELS 3 Xrotation Zrotation Yrotation
							JOINT RightHand
							{
								OFFSET	-27.8738	0.0000	0.0000
								CHANNELS 3 Zrotation Yrotation Xrotation
								JOINT RightHandThumb1
								{
									OFFSET	-2.5178	-0.9367	2.5137
									CHANNELS 3 Zrotation Xrotation Yrotation
									JOINT RightHandThumb2
									{
										OFFSET	-3.2638	-1.0870	2.9669
										CHANNELS 3 Zrotation Xrotation Yrotation
										JOINT RightHandThumb3
										{
											OFFSET	-4.4165	-1.3703	2.1350
											CHANNELS 3 Zrotation Xrotation Yrotation
											End Site
											{
												OFFSET -2.6000 -1.0000 1.0000
											}
										}
									}
								}
								JOINT RightHandIndex1
								{
									OFFSET	-10.4665	0.4896	2.7120
									CHANNELS 3 Zrotation Xrotation Yrotation
									JOINT RightHandIndex2
									{
										OFFSET	-5.3768	0.0000	0.0000
										CHANNELS 3 Zrotation Xrotation Yrotation
										JOINT RightHandIndex3
										{
											OFFSET	-3.3855	0.0000	0.0000
											CHANNELS 3 Zrotation Xrotation Yrotation
											End Site
											{
												OFFSET -2.6000 0.0000 0.0000
											}
										}
									}
								}
								JOINT RightHandMiddle1
								{
									OFFSET	-10.7596	0.4896	0.4278
									CHANNELS 3 Zrotation Xrotation Yrotation
									JOINT RightHandMiddle2
									{
										OFFSET	-5.6168	0.0000	0.0000
										CHANNELS 3 Zrotation Xrotation Yrotation
										JOINT RightHandMiddle3
										{
											OFFSET	-3.7364	0.0000	0.0000
											CHANNELS 3 Zrotation Xrotation Yrotation
											End Site
											{
												OFFSET -2.3000 0.0000 0.0000
											}
										}
									}
								}
								JOINT RightHandRing1
								{
									OFFSET	-10.4702	0.3879	-1.9363
									CHANNELS 3 Zrotation Xrotation Yrotation
									JOINT RightHandRing2
									{
										OFFSET	-5.4013	0.0000	0.0000
										CHANNELS 3 Zrotation Xrotation Yrotation
										JOINT RightHandRing3
										{
											OFFSET	-3.3916	0.0000	0.0000
											CHANNELS 3 Zrotation Xrotation Yrotation
											End Site
											{
												OFFSET -2.2000 0.0000 0.0000
											}
										}
									}
								}
								JOINT RightHandPinky1
								{
									OFFSET	-9.9715	-0.1191	-3.9540
									CHANNELS 3 Zrotation Xrotation Yrotation
									JOINT RightHandPinky2
									{
										OFFSET	-3.6528	0.0000	0.0000
										CHANNELS 3 Zrotation Xrotation Yrotation
										JOINT RightHandPinky3
										{
											OFFSET	-2.7820	0.0000	0.0000
											CHANNELS 3 Zrotation Xrotation Yrotation
											End Site
											{
												OFFSET -2.9000 0.0000 0.0000
											}
										}
									}
								}
							}
						}
					}
				}
			}
		}
	}
	JOINT LeftUpLeg
	{
		OFFSET	9.6338	-3.2733	0.0000
		CHANNELS 3 Xrotation Yrotation Zrotation
		JOINT LeftLeg
		{
			OFFSET	0.0000	-41.7300	-1.7300
			CHANNELS 3 Xrotation Yrotation Zrotation
			JOINT LeftFoot
			{
				OFFSET	0.0126	-39.1900	-0.8477
				CHANNELS 3 Xrotation Yrotation Zrotation
				JOINT LeftToeBase
				{
					OFFSET	-0.1833	-12.1931	8.2823
					CHANNELS 3 Xrotation Yrotation Zrotation
					End Site
					{
						OFFSET 0.0000 0.0000 10.1681
					}
				}
			}
		}
	}
	JOINT RightUpLeg
	{
		OFFSET	-9.6338	-3.2733	0.0000
		CHANNELS 3 Xrotation Yrotation Zrotation
		JOINT RightLeg
		{
			OFFSET	0.0000	-41.7300	-1.7300
			CHANNELS 3 Xrotation Yrotation Zrotation
			JOINT RightFoot
			{
				OFFSET	0.0126	-39.1900	-0.8477
				CHANNELS 3 Xrotation Yrotation Zrotation
				JOINT RightToeBase
				{
					OFFSET	-0.1833	-12.1931	8.2823
					CHANNELS 3 Xrotation Yrotation Zrotation
					End Site
					{
						OFFSET 0.0032 0.0000 10.1681
					}
				}
			}
		}
	}
}
MOTION
Frames: 6
Frame Time: 0.0333333
0.6033 85.0920 -1.1482 -29.2163 9.0556 -0.9110 1.7337 -0.7249 -0.4637 3.2637 -0.3725 0.5893 3.2601 -0.3946 0.6103 8.9841 3.3931 -6.9577 -0.0000 0.0000 -0.0000 -8.2672 15.0950 -5.7508 -12.0016 2.9174 -14.8264 -39.2884 -48.3949 -33.5612 0.0000 0.0000 -122.2018 -4.0478 -6.5917 -59.2422 -24.8732 -1.0357 27.3843 30.9291 -3.4988 72.0948 20.6457 -8.8279 36.2350 -96.6034 1.1336 1.3383 -97.9971 -1.1565 1.0054 -48.9909 -0.3491 0.7661 -96.6195 1.1332 1.3389 -97.9810 -1.1562 1.0054 -48.9909 -0.3491 0.7661 -96.6195 1.1332 1.3389 -97.9810 -1.1562 1.0054 -48.9909 -0.3491 0.7661 -96.5265 1.1387 5.4223 -98.0828 2.8890 1.5762 -48.9909 -0.3491 0.7661 9.5769 2.5511 31.7841 31.5974 -14.5055 24.1565 0.0000 -0.0000 111.1001 -7.0566 2.0176 0.9762 23.9639 3.1147 -25.2259 -2.7250 16.9546 -61.4617 -17.1878 1.0234 -30.4478 100.2836 -0.5662 -2.6846 75.9224 -1.7292 -2.2163 37.9661 -0.4835 -1.4055 100.2836 -0.5662 -2.6846 75.9224 -1.7292 -2.2163 37.9661 -0.4835 -1.4055 100.2836 -0.5662 -2.6846 75.9224 -1.7292 -2.2163 37.9661 -0.4835 -1.4055 100.2836 -0.5662 -2.6846 75.9224 -1.7292 -2.2163 37.9661 -0.4835 -1.4055 -51.2659 13.5409 22.7145 54.5960 3.0102 3.9778 -13.4338 0.1648 -11.8583 -0.0000 0.0000 -0.0000 -34.3812 -13.2369 -20.3646 51.7402 -1.9017 -6.3466 -24.5739 -5.4139 20.3360 -1.2061 0.0000 -0.0000 
0.4135 84.7933 -1.2118 -23.7234 9.2847 -0.8284 1.7466 -0.9467 0.2892 3.3366 -1.1433 1.0706 3.3360 -1.1553 1.0715 9.0392 2.9839 -6.6709 -0.0000 0.0000 -0.0000 -8.6373 13.1612 -5.4607 -11.9980 3.0058 -15.7850 -39.6878 -46.6085 -33.4053 -0.0000 -0.0000 -122.0008 -3.7489 -6.3187 -59.5370 -24.8732 -1.0357 27.3843 30.9291 -3.4987 72.0948 20.6456 -8.8279 36.2350 -96.6034 1.1336 1.3383 -97.9970 -1.1565 1.0054 -48.9909 -0.3491 0.7661 -96.6195 1.1332 1.3389 -97.9809 -1.1562 1.0054 -48.9909 -0.3491 0.7661 -96.6195 1.1332 1.3389 -97.9809 -1.1562 1.0054 -48.9909 -0.3491 0.7661 -96.5265 1.1387 5.4223 -98.0828 2.8890 1.5762 -48.9909 -0.3491 0.7661 8.2864 1.4395 27.7009 30.3778 -14.8820 21.7057 -0.0000 0.0000 113.4963 -7.3366 2.3672 -4.1414 23.9639 3.1147 -25.2259 -2.7250 16.9546 -61.4617 -17.1878 1.0234 -30.4478 100.2836 -0.5662 -2.6846 75.9224 -1.7292 -2.2163 37.9661 -0.4835 -1.4055 100.2836 -0.5662 -2.6846 75.9224 -1.7292 -2.2163 37.9661 -0.4835 -1.4055 100.2836 -0.5662 -2.6846 75.9224 -1.7292 -2.2163 37.9661 -0.4835 -1.4055 100.2836 -0.5662 -2.6846 75.9224 -1.7292 -2.2163 37.9661 -0.4835 -1.4055 -52.8554 12.5541 20.8505 55.1112 -0.7538 4.4679 -12.9959 0.0594 -10.2060 -0.0001 -0.0000 -0.0000 -31.7644 -12.4080 -19.2364 51.6224 -6.6318 -6.2869 -25.6383 -6.2320 22.7116 -3.4716 0.0000 -0.0000 
-0.0586 84.4601 -0.5649 -12.3244 9.0874 -0.3083 1.6052 -1.0787 1.4953 3.1373 -1.5275 1.6007 3.1426 -1.5209 1.5964 9.3692 2.4279 -6.6160 -0.0000 0.0000 -0.0000 -8.9562 7.2424 -2.7759 -11.9915 3.3836 -17.8434 -40.7878 -43.9454 -34.3034 0.0000 0.0000 -124.1602 -2.9494 -5.6372 -60.8648 -24.8732 -1.0357 27.3843 30.9292 -3.4988 72.0948 20.6457 -8.8279 36.2350 -96.6034 1.1336 1.3383 -97.9970 -1.1565 1.0054 -48.9909 -0.3491 0.7661 -96.6195 1.1332 1.3389 -97.9810 -1.1562 1.0054 -48.9909 -0.3491 0.7661 -96.6195 1.1332 1.3389 -97.9810 -1.1562 1.0054 -48.9909 -0.3491 0.7661 -96.5265 1.1387 5.4223 -98.0828 2.8890 1.5762 -48.9909 -0.3491 0.7661 6.5620 0.5522 21.3782 29.9121 -17.7489 17.5922 -0.0000 0.0000 116.3152 -6.0882 2.5002 -9.1003 23.9639 3.1147 -25.2260 -2.7250 16.9546 -61.4617 -17.1878 1.0234 -30.4478 100.2836 -0.5662 -2.6846 75.9224 -1.7292 -2.2163 37.9661 -0.4835 -1.4055 100.2836 -0.5662 -2.6846 75.9224 -1.7292 -2.2163 37.9661 -0.4835 -1.4055 100.2836 -0.5662 -2.6846 75.9224 -1.7292 -2.2163 37.9661 -0.4835 -1.4055 100.2836 -0.5662 -2.6846 75.9224 -1.7292 -2.2163 37.9661 -0.4835 -1.4055 -54.6288 12.0237 17.0550 55.2543 -5.1841 5.0360 -11.8782 -4.4382 -7.3045 -0.0000 0.0000 -0.0000 -26.2814 -11.6490 -16.8970 52.1891 -11.0876 -6.5967 -26.8068 -10.1307 22.5035 -9.5887 -0.0000 -0.0000 
-0.7036 84.1178 0.6698 5.8164 8.2022 0.8570 1.2334 -0.7513 2.8803 2.6075 -0.9088 2.2312 2.6139 -0.8837 2.2302 9.8206 0.9282 -7.4626 -0.0000 0.0000 -0.0000 -8.8910 -3.4441 2.9503 -11.9867 3.9891 -20.6176 -41.2317 -41.8391 -36.2767 -0.0000 -0.0000 -126.3883 -1.9680 -5.0694 -63.8117 -24.8732 -1.0356 27.3843 30.9292 -3.4988 72.0948 20.6457 -8.8278 36.2350 -96.6034 1.1336 1.3383 -97.9971 -1.1565 1.0054 -48.9909 -0.3491 0.7661 -96.6195 1.1332 1.3389 -97.9810 -1.1562 1.0054 -48.9909 -0.3491 0.7661 -96.6195 1.1332 1.3389 -97.9810 -1.1562 1.0054 -48.9909 -0.3491 0.7661 -96.5265 1.1387 5.4223 -98.0828 2.8890 1.5762 -48.9909 -0.3491 0.7661 3.6340 -0.1250 15.4386 27.0388 -27.3864 9.9875 -0.0000 0.0000 116.2455 -2.3654 1.7837 -10.8726 23.9639 3.1147 -25.2260 -2.7250 16.9546 -61.4617 -17.1878 1.0234 -30.4478 100.2836 -0.5662 -2.6846 75.9224 -1.7292 -2.2163 37.9661 -0.4835 -1.4055 100.2836 -0.5662 -2.6846 75.9224 -1.7292 -2.2163 37.9661 -0.4835 -1.4055 100.2836 -0.5662 -2.6846 75.9224 -1.7292 -2.2163 37.9661 -0.4835 -1.4055 100.2836 -0.5662 -2.6846 75.9224 -1.7292 -2.2163 37.9661 -0.4835 -1.4055 -55.3936 12.0213 10.9082 54.3473 -9.1073 4.1701 -8.7041 -14.3786 -2.4977 -0.0489 -0.0000 -0.0000 -19.5539 -12.0475 -12.9942 54.3971 -11.8394 -8.2215 -22.0661 -14.0261 22.6082 -21.4997 0.0000 -0.0000 
-0.9223 83.7947 1.4657 20.8831 6.9643 1.7147 0.9121 -0.1309 3.8007 2.1873 0.4153 2.8717 2.1857 0.4515 2.8695 9.9741 -0.3568 -8.5335 -0.0000 0.0000 -0.0000 -8.4177 -12.7751 7.4058 -11.9818 4.3019 -22.2167 -40.0502 -41.8607 -37.0887 0.0000 -0.0000 -126.5720 -1.3365 -4.5992 -66.7766 -24.8732 -1.0356 27.3843 30.9292 -3.4988 72.0948 20.6457 -8.8279 36.2350 -96.6034 1.1336 1.3383 -97.9970 -1.1565 1.0054 -48.9909 -0.3491 0.7661 -96.6195 1.1332 1.3389 -97.9809 -1.1562 1.0054 -48.9909 -0.3491 0.7661 -96.6195 1.1332 1.3389 -97.9809 -1.1562 1.0054 -48.9909 -0.3491 0.7661 -96.5265 1.1387 5.4223 -98.0828 2.8890 1.5762 -48.9909 -0.3491 0.7661 -0.5930 -1.2632 15.7225 19.9206 -38.7310 6.9780 0.0000 0.0000 103.3295 0.9786 0.4527 -3.6792 23.9639 3.1146 -25.2260 -2.7250 16.9546 -61.4617 -17.1878 1.0234 -30.4478 100.2836 -0.5662 -2.6846 75.9224 -1.7292 -2.2163 37.9661 -0.4835 -1.4055 100.2836 -0.5662 -2.6846 75.9224 -1.7292 -2.2163 37.9661 -0.4835 -1.4055 100.2836 -0.5662 -2.6846 75.9224 -1.7292 -2.2163 37.9661 -0.4835 -1.4055 100.2836 -0.5662 -2.6846 75.9224 -1.7292 -2.2163 37.9661 -0.4835 -1.4055 -54.5552 11.4570 6.1200 52.8115 -9.7356 0.5428 -4.1892 -22.1300 3.2386 -0.8837 0.0000 -0.0000 -15.4712 -13.0968 -10.1196 57.0506 -10.5422 -8.4222 -15.3533 -13.6307 21.7017 -32.3671 0.0000 -0.0000 
-0.8570 83.4776 1.5975 26.8760 5.7978 1.9842 0.7820 0.7085 4.1398 2.1026 2.2164 3.1431 2.0796 2.2600 3.1282 9.9685 -0.8247 -9.0899 -0.0000 0.0000 -0.0000 -8.2711 -16.0163 8.1741 -11.9769 4.1396 -21.7354 -38.1971 -41.6572 -35.4642 -0.0000 0.0000 -127.2622 -0.9177 -3.9685 -68.3890 -24.8732 -1.0356 27.3843 30.9292 -3.4988 72.0948 20.6457 -8.8279 36.2350 -96.6034 1.1336 1.3383 -97.9970 -1.1565 1.0054 -48.9909 -0.3491 0.7661 -96.6195 1.1333 1.3389 -97.9810 -1.1562 1.0054 -48.9909 -0.3491 0.7661 -96.6195 1.1333 1.3389 -97.9810 -1.1562 1.0054 -48.9909 -0.3491 0.7661 -96.5265 1.1387 5.4223 -98.0828 2.8890 1.5762 -48.9909 -0.3491 0.7661 -8.6605 -4.7850 25.3051 14.7584 -43.9905 11.7060 -0.0000 -0.0000 66.3670 0.9029 -1.1425 14.1680 23.9639 3.1147 -25.2259 -2.7250 16.9546 -61.4618 -17.1878 1.0234 -30.4478 100.2836 -0.5662 -2.6846 75.9224 -1.7292 -2.2163 37.9661 -0.4835 -1.4055 100.2836 -0.5662 -2.6846 75.9224 -1.7292 -2.2163 37.9661 -0.4835 -1.4055 100.2836 -0.5662 -2.6846 75.9224 -1.7292 -2.2163 37.9661 -0.4835 -1.4055 100.2836 -0.5662 -2.6846 75.9224 -1.7292 -2.2163 37.9661 -0.4835 -1.4055 -53.5065 10.2682 3.5738 52.6666 -9.6839 -1.0902 -2.5292 -23.5698 5.6122 -1.8546 0.0000 0.0000 -15.1178 -13.0105 -11.3595 59.5779 -8.9318 -6.2736 -7.2581 -8.5017 23.2485 -39.2977 0.0000 -0.0000 
